<svg width="23" height="22" viewBox="0 0 23 22" fill="none" xmlns="http://www.w3.org/2000/svg">
<path d="M22.4955 4.45524C22.0595 3.89809 21.3813 3.55947 20.6794 3.55947H5.93272L5.47301 1.76792C5.20626 0.726461 4.28685 0 3.22079 0H0.751064C0.339596 0 0 0.338628 0 0.751064C0 1.16253 0.338628 1.50213 0.751064 1.50213H3.22079C3.58402 1.50213 3.89901 1.74428 3.99549 2.10751L6.94952 13.8767C7.21628 14.9181 8.13569 15.6446 9.20175 15.6446H18.8632C19.9283 15.6446 20.8733 14.9181 21.1154 13.8767L22.9316 6.41809C23.1009 5.73892 22.9562 5.01246 22.4955 4.45531L22.4955 4.45524ZM21.455 6.07748L19.6389 13.5361C19.5424 13.8993 19.2274 14.1414 18.8642 14.1414H9.20177C8.83854 14.1414 8.52355 13.8993 8.42707 13.5361L6.32053 5.08537H20.6805C20.9226 5.08537 21.1648 5.20645 21.3105 5.40037C21.4552 5.59333 21.5271 5.83549 21.4552 6.07765L21.455 6.07748Z" />
<path d="M9.71127 16.6112C8.33119 16.6112 7.19336 17.7491 7.19336 19.1291C7.19336 20.5091 8.33129 21.647 9.71127 21.647C11.0914 21.648 12.2292 20.5101 12.2292 19.1298C12.2292 17.7496 11.0913 16.611 9.71127 16.611V16.6112ZM9.71127 20.1224C9.15413 20.1224 8.71806 19.6864 8.71806 19.1292C8.71806 18.5721 9.15413 18.136 9.71127 18.136C10.2684 18.136 10.7045 18.5721 10.7045 19.1292C10.7035 19.6627 10.2438 20.1224 9.71127 20.1224Z" />
<path d="M18.0414 16.611C16.6613 16.611 15.5234 17.7489 15.5234 19.1289C15.5234 20.5089 16.6614 21.6468 18.0414 21.6468C19.4213 21.6468 20.5593 20.5089 20.5593 19.1289C20.5356 17.7497 19.4213 16.611 18.0414 16.611ZM18.0414 20.1222C17.4842 20.1222 17.0481 19.6861 17.0481 19.129C17.0481 18.5718 17.4842 18.1358 18.0414 18.1358C18.5985 18.1358 19.0346 18.5718 19.0346 19.129C19.0346 19.6625 18.5739 20.1222 18.0414 20.1222Z" />
</svg>
