<svg width="24" height="24" viewBox="0 0 24 24" fill="none" xmlns="http://www.w3.org/2000/svg">
<path d="M12.0101 4.5C14.5701 4.5 16.6528 6.48345 16.6528 8.92155C16.6528 10.5745 15.6979 12.0205 14.3099 12.7647C17.1301 13.6325 19.2128 15.9879 19.473 18.9217C19.5597 19.6653 18.0844 19.7069 18.0413 19.0044C17.7374 16.0705 15.0907 13.8393 12.0102 13.8393C8.88599 13.8393 6.28299 16.0705 5.97901 19.0044C5.89227 19.7069 4.41693 19.6653 4.50368 18.9217C4.80761 16.029 6.89012 13.6324 9.66669 12.7647C8.2781 12.0211 7.32387 10.5744 7.32387 8.92155C7.32387 6.48345 9.45012 4.5 12.0101 4.5ZM12.0101 5.90508C10.2315 5.90508 8.79918 7.26855 8.79918 8.92143C8.79918 10.6154 10.2308 11.9795 12.0101 11.9795C13.7458 11.9795 15.1773 10.616 15.1773 8.92143C15.1773 7.26843 13.7457 5.90508 12.0101 5.90508Z"/>
</svg>
