<svg width="16" height="16" viewBox="0 0 16 16" fill="none" xmlns="http://www.w3.org/2000/svg">
<path d="M1.21602 6.77807C1.15525 7.00271 1.16536 7.18429 1.2323 7.31763L1.21602 6.77807ZM1.21602 6.77807C1.27661 6.5541 1.40553 6.29627 1.60276 6.02056M1.21602 6.77807L1.60276 6.02056M1.60276 6.02056L3.05524 3.99014M1.60276 6.02056L3.05524 3.99014M3.05524 3.99014H4.53621L2.42279 7.77446C2.11281 7.76954 1.85211 7.7245 1.65108 7.64744C1.43734 7.5655 1.29917 7.45081 1.2323 7.31763L3.05524 3.99014ZM2.67908 8.5614H13.321V14.6798C13.321 14.7553 13.2612 14.8137 13.1908 14.8137H10.3905V9.75796C10.3905 9.50959 10.1925 9.30615 9.94422 9.30615H6.25399C6.00568 9.30615 5.80771 9.50957 5.80771 9.75796V14.8143L2.80939 14.8137H2.80937C2.73877 14.8137 2.67851 14.7551 2.67851 14.6792L2.67908 8.5614ZM14.7678 7.31763L14.8572 7.36249L14.7678 7.31763C14.7009 7.45082 14.5628 7.56554 14.349 7.6475C14.1358 7.72929 13.8553 7.77504 13.5201 7.77504H13.4299L11.3157 3.99072H12.9443L14.3973 6.02116L14.3973 6.02118C14.5945 6.29658 14.7235 6.55425 14.7841 6.77814C14.8448 7.00271 14.8347 7.18429 14.7678 7.31763ZM15.0263 5.56002L13.6364 3.61814V1.3203C13.6364 0.81296 13.2322 0.4 12.729 0.4H3.27097C2.76777 0.4 2.36356 0.81296 2.36356 1.3203V3.61754L0.973696 5.56003C0.973689 5.56004 0.973681 5.56005 0.973674 5.56006C0.452141 6.28837 0.286661 6.97652 0.475086 7.51975C0.6581 8.04739 1.16129 8.40128 1.90186 8.51823V14.6797C1.90186 15.187 2.30606 15.6 2.80926 15.6H13.1901C13.6933 15.6 14.0975 15.187 14.0975 14.6797L14.0981 8.51765C14.8387 8.40101 15.3419 8.04727 15.5249 7.5197C15.7134 6.97653 15.5479 6.28836 15.0263 5.56005C15.0263 5.56004 15.0263 5.56003 15.0263 5.56002ZM3.14018 1.3203C3.14018 1.24468 3.20019 1.18575 3.27104 1.18575H12.7291C12.7995 1.18575 12.86 1.24485 12.86 1.3203V3.20492H3.14021L3.14018 1.3203ZM6.02434 3.99072L5.01761 7.77504H3.31494L5.42916 3.99072H6.02434ZM5.82215 7.77504L6.82895 3.99072H7.53798V7.77504H5.82215ZM8.31454 3.99072H9.02358L10.0303 7.77504H8.31448L8.31454 3.99072ZM10.8349 7.77504L9.82818 3.99072H10.424L12.5382 7.77504H10.8349ZM9.61391 14.8137H6.58433V10.0919H9.61391V14.8137Z"  stroke-width="0.2"/>
</svg>
