<svg width="24" height="24" viewBox="0 0 24 24" fill="none" xmlns="http://www.w3.org/2000/svg">
<path d="M23.0507 16.8651L20.8973 14.7274C22.5787 12.5747 22.4018 9.50888 20.4691 7.57731C19.4515 6.56031 18.0938 6 16.6487 6C15.2029 6 13.8459 6.56034 12.8283 7.57731C11.8107 8.59431 11.25 9.95115 11.25 11.3953C11.25 12.8402 11.8107 14.1964 12.8283 15.2134C13.8459 16.2304 15.2036 16.7907 16.6487 16.7907C17.8438 16.7907 19.0241 16.3927 19.9679 15.6406L22.1069 17.8082C22.2394 17.9407 22.4019 18 22.5788 18C22.7557 18 22.9182 17.9263 23.0508 17.8082C23.3164 17.5577 23.3164 17.1304 23.0508 16.8649L23.0507 16.8651ZM20.7204 11.3953C20.7204 12.486 20.2928 13.5037 19.5253 14.2701C18.7583 15.0366 17.7257 15.4645 16.6487 15.4645C15.5716 15.4645 14.539 15.0372 13.7721 14.2701C13.0051 13.5036 12.5769 12.4717 12.5769 11.3953C12.5769 10.3046 13.0045 9.287 13.7721 8.52054C14.539 7.75404 15.5716 7.32615 16.6487 7.32615C17.7401 7.32615 18.7583 7.75345 19.5253 8.52054C20.2922 9.28761 20.7204 10.3047 20.7204 11.3953Z" fill="#43464E"/>
<rect x="1.35" y="5.85" width="8.05815" height="1.28079" rx="0.640393" stroke-width="0.3"/>
<rect x="1.35" y="11.7345" width="7.08839" height="1.28079" rx="0.640393" stroke-width="0.3"/>
<rect x="1.35" y="17.6192" width="10.9675" height="1.28079" rx="0.640393" stroke-width="0.3"/>
</svg>
