<svg width="32" height="32" viewBox="0 0 32 32" fill="none" xmlns="http://www.w3.org/2000/svg">
<path d="M25.6679 24.1085L22.0788 20.5457C24.8811 16.9579 24.5864 11.8481 21.3652 8.62884C19.6692 6.93384 17.4063 6 14.9979 6C12.5882 6 10.3265 6.93389 8.63049 8.62884C6.93443 10.3238 6 12.5853 6 14.9922C6 17.4004 6.93448 19.6607 8.63049 21.3556C10.3266 23.0506 12.5894 23.9844 14.9979 23.9844C16.9897 23.9844 18.9568 23.3212 20.5298 22.0677L24.0948 25.6804C24.3157 25.9011 24.5865 26 24.8814 26C25.1762 26 25.4471 25.8771 25.6679 25.6804C26.1107 25.2629 26.1107 24.5507 25.6679 24.1082L25.6679 24.1085ZM21.784 14.9922C21.784 16.8101 21.0714 18.5061 19.7921 19.7836C18.5138 21.061 16.7928 21.7742 14.9978 21.7742C13.2027 21.7742 11.4817 21.062 10.2035 19.7836C8.92516 18.5061 8.21157 16.7861 8.21157 14.9922C8.21157 13.1744 8.92418 11.4783 10.2035 10.2009C11.4817 8.9234 13.2027 8.21025 14.9978 8.21025C16.8168 8.21025 18.5139 8.92242 19.7921 10.2009C21.0704 11.4793 21.784 13.1745 21.784 14.9922Z" fill="#43464E"/>
</svg>
