<svg width="24" height="24" viewBox="0 0 24 24" fill="none" xmlns="http://www.w3.org/2000/svg">
<path fill-rule="evenodd" clip-rule="evenodd" d="M12.2581 7.24282C13.1524 6.44708 14.3654 6 15.6304 6C16.8953 6 18.1084 6.44708 19.0026 7.24282C19.897 8.03797 20.3996 9.11695 20.3996 10.242C20.3996 11.3671 19.897 12.4461 19.0025 13.2414L12.5181 19.0089C12.2316 19.2637 11.7672 19.2637 11.4807 19.0089L4.99638 13.2414C3.13402 11.5849 3.13402 8.89919 4.99638 7.24271C6.85873 5.58623 9.8782 5.58623 11.7406 7.24271L11.9994 7.47295L12.2581 7.24282ZM11.9994 17.6249L17.1876 13.0103L17.9652 12.3186C18.5846 11.7679 18.9326 11.0209 18.9326 10.242C18.9326 9.46313 18.5846 8.71615 17.9652 8.1655C17.3459 7.61439 16.5061 7.30488 15.6304 7.30488C14.7547 7.30488 13.9149 7.61439 13.2957 8.1654L12.5181 8.85698C12.2317 9.11177 11.7672 9.11177 11.4808 8.85698L10.7032 8.1654C9.41378 7.0185 7.32319 7.0185 6.03376 8.1654C4.74432 9.31229 4.74432 11.1718 6.03376 12.3187L11.9994 17.6249Z"/>
<mask id="mask0_20482_6295" style="mask-type:alpha" maskUnits="userSpaceOnUse" x="3" y="6" width="18" height="14">
<path fill-rule="evenodd" clip-rule="evenodd" d="M12.2581 7.24282C13.1524 6.44708 14.3654 6 15.6304 6C16.8953 6 18.1084 6.44708 19.0026 7.24282C19.897 8.03797 20.3996 9.11695 20.3996 10.242C20.3996 11.3671 19.897 12.4461 19.0025 13.2414L12.5181 19.0089C12.2316 19.2637 11.7672 19.2637 11.4807 19.0089L4.99638 13.2414C3.13402 11.5849 3.13402 8.89919 4.99638 7.24271C6.85873 5.58623 9.8782 5.58623 11.7406 7.24271L11.9994 7.47295L12.2581 7.24282ZM11.9994 17.6249L17.1876 13.0103L17.9652 12.3186C18.5846 11.7679 18.9326 11.0209 18.9326 10.242C18.9326 9.46313 18.5846 8.71615 17.9652 8.1655C17.3459 7.61439 16.5061 7.30488 15.6304 7.30488C14.7547 7.30488 13.9149 7.61439 13.2957 8.1654L12.5181 8.85698C12.2317 9.11177 11.7672 9.11177 11.4808 8.85698L10.7032 8.1654C9.41378 7.0185 7.32319 7.0185 6.03376 8.1654C4.74432 9.31229 4.74432 11.1718 6.03376 12.3187L11.9994 17.6249Z" fill="white"/>
</mask>
<g mask="url(#mask0_20482_6295)">
</g>
</svg>
