<?xml version="1.0" encoding="utf-8"?>
<svg xmlns="http://www.w3.org/2000/svg">
<symbol id="account" viewBox="0 0 24 24">
<path d="M12.0101 4.5C14.5701 4.5 16.6528 6.48345 16.6528 8.92155C16.6528 10.5745 15.6979 12.0205 14.3099 12.7647C17.1301 13.6325 19.2128 15.9879 19.473 18.9217C19.5597 19.6653 18.0844 19.7069 18.0413 19.0044C17.7374 16.0705 15.0907 13.8393 12.0102 13.8393C8.88599 13.8393 6.28299 16.0705 5.97901 19.0044C5.89227 19.7069 4.41693 19.6653 4.50368 18.9217C4.80761 16.029 6.89012 13.6324 9.66669 12.7647C8.2781 12.0211 7.32387 10.5744 7.32387 8.92155C7.32387 6.48345 9.45012 4.5 12.0101 4.5ZM12.0101 5.90508C10.2315 5.90508 8.79918 7.26855 8.79918 8.92143C8.79918 10.6154 10.2308 11.9795 12.0101 11.9795C13.7458 11.9795 15.1773 10.616 15.1773 8.92143C15.1773 7.26843 13.7457 5.90508 12.0101 5.90508Z"/>

</symbol>
<symbol id="cart" viewBox="0 0 23 22">
<path d="M22.4955 4.45524C22.0595 3.89809 21.3813 3.55947 20.6794 3.55947H5.93272L5.47301 1.76792C5.20626 0.726461 4.28685 0 3.22079 0H0.751064C0.339596 0 0 0.338628 0 0.751064C0 1.16253 0.338628 1.50213 0.751064 1.50213H3.22079C3.58402 1.50213 3.89901 1.74428 3.99549 2.10751L6.94952 13.8767C7.21628 14.9181 8.13569 15.6446 9.20175 15.6446H18.8632C19.9283 15.6446 20.8733 14.9181 21.1154 13.8767L22.9316 6.41809C23.1009 5.73892 22.9562 5.01246 22.4955 4.45531L22.4955 4.45524ZM21.455 6.07748L19.6389 13.5361C19.5424 13.8993 19.2274 14.1414 18.8642 14.1414H9.20177C8.83854 14.1414 8.52355 13.8993 8.42707 13.5361L6.32053 5.08537H20.6805C20.9226 5.08537 21.1648 5.20645 21.3105 5.40037C21.4552 5.59333 21.5271 5.83549 21.4552 6.07765L21.455 6.07748Z"/>
<path d="M9.71127 16.6112C8.33119 16.6112 7.19336 17.7491 7.19336 19.1291C7.19336 20.5091 8.33129 21.647 9.71127 21.647C11.0914 21.648 12.2292 20.5101 12.2292 19.1298C12.2292 17.7496 11.0913 16.611 9.71127 16.611V16.6112ZM9.71127 20.1224C9.15413 20.1224 8.71806 19.6864 8.71806 19.1292C8.71806 18.5721 9.15413 18.136 9.71127 18.136C10.2684 18.136 10.7045 18.5721 10.7045 19.1292C10.7035 19.6627 10.2438 20.1224 9.71127 20.1224Z"/>
<path d="M18.0414 16.611C16.6613 16.611 15.5234 17.7489 15.5234 19.1289C15.5234 20.5089 16.6614 21.6468 18.0414 21.6468C19.4213 21.6468 20.5593 20.5089 20.5593 19.1289C20.5356 17.7497 19.4213 16.611 18.0414 16.611ZM18.0414 20.1222C17.4842 20.1222 17.0481 19.6861 17.0481 19.129C17.0481 18.5718 17.4842 18.1358 18.0414 18.1358C18.5985 18.1358 19.0346 18.5718 19.0346 19.129C19.0346 19.6625 18.5739 20.1222 18.0414 20.1222Z"/>

</symbol>
<symbol id="home" viewBox="0 0 16 16">
<path d="M1.21602 6.77807C1.15525 7.00271 1.16536 7.18429 1.2323 7.31763L1.21602 6.77807ZM1.21602 6.77807C1.27661 6.5541 1.40553 6.29627 1.60276 6.02056M1.21602 6.77807L1.60276 6.02056M1.60276 6.02056L3.05524 3.99014M1.60276 6.02056L3.05524 3.99014M3.05524 3.99014H4.53621L2.42279 7.77446C2.11281 7.76954 1.85211 7.7245 1.65108 7.64744C1.43734 7.5655 1.29917 7.45081 1.2323 7.31763L3.05524 3.99014ZM2.67908 8.5614H13.321V14.6798C13.321 14.7553 13.2612 14.8137 13.1908 14.8137H10.3905V9.75796C10.3905 9.50959 10.1925 9.30615 9.94422 9.30615H6.25399C6.00568 9.30615 5.80771 9.50957 5.80771 9.75796V14.8143L2.80939 14.8137H2.80937C2.73877 14.8137 2.67851 14.7551 2.67851 14.6792L2.67908 8.5614ZM14.7678 7.31763L14.8572 7.36249L14.7678 7.31763C14.7009 7.45082 14.5628 7.56554 14.349 7.6475C14.1358 7.72929 13.8553 7.77504 13.5201 7.77504H13.4299L11.3157 3.99072H12.9443L14.3973 6.02116L14.3973 6.02118C14.5945 6.29658 14.7235 6.55425 14.7841 6.77814C14.8448 7.00271 14.8347 7.18429 14.7678 7.31763ZM15.0263 5.56002L13.6364 3.61814V1.3203C13.6364 0.81296 13.2322 0.4 12.729 0.4H3.27097C2.76777 0.4 2.36356 0.81296 2.36356 1.3203V3.61754L0.973696 5.56003C0.973689 5.56004 0.973681 5.56005 0.973674 5.56006C0.452141 6.28837 0.286661 6.97652 0.475086 7.51975C0.6581 8.04739 1.16129 8.40128 1.90186 8.51823V14.6797C1.90186 15.187 2.30606 15.6 2.80926 15.6H13.1901C13.6933 15.6 14.0975 15.187 14.0975 14.6797L14.0981 8.51765C14.8387 8.40101 15.3419 8.04727 15.5249 7.5197C15.7134 6.97653 15.5479 6.28836 15.0263 5.56005C15.0263 5.56004 15.0263 5.56003 15.0263 5.56002ZM3.14018 1.3203C3.14018 1.24468 3.20019 1.18575 3.27104 1.18575H12.7291C12.7995 1.18575 12.86 1.24485 12.86 1.3203V3.20492H3.14021L3.14018 1.3203ZM6.02434 3.99072L5.01761 7.77504H3.31494L5.42916 3.99072H6.02434ZM5.82215 7.77504L6.82895 3.99072H7.53798V7.77504H5.82215ZM8.31454 3.99072H9.02358L10.0303 7.77504H8.31448L8.31454 3.99072ZM10.8349 7.77504L9.82818 3.99072H10.424L12.5382 7.77504H10.8349ZM9.61391 14.8137H6.58433V10.0919H9.61391V14.8137Z" stroke-width="0.2"/>

</symbol>
<symbol id="menu" viewBox="0 0 24 24">
<path d="M23.0507 16.8651L20.8973 14.7274C22.5787 12.5747 22.4018 9.50888 20.4691 7.57731C19.4515 6.56031 18.0938 6 16.6487 6C15.2029 6 13.8459 6.56034 12.8283 7.57731C11.8107 8.59431 11.25 9.95115 11.25 11.3953C11.25 12.8402 11.8107 14.1964 12.8283 15.2134C13.8459 16.2304 15.2036 16.7907 16.6487 16.7907C17.8438 16.7907 19.0241 16.3927 19.9679 15.6406L22.1069 17.8082C22.2394 17.9407 22.4019 18 22.5788 18C22.7557 18 22.9182 17.9263 23.0508 17.8082C23.3164 17.5577 23.3164 17.1304 23.0508 16.8649L23.0507 16.8651ZM20.7204 11.3953C20.7204 12.486 20.2928 13.5037 19.5253 14.2701C18.7583 15.0366 17.7257 15.4645 16.6487 15.4645C15.5716 15.4645 14.539 15.0372 13.7721 14.2701C13.0051 13.5036 12.5769 12.4717 12.5769 11.3953C12.5769 10.3046 13.0045 9.287 13.7721 8.52054C14.539 7.75404 15.5716 7.32615 16.6487 7.32615C17.7401 7.32615 18.7583 7.75345 19.5253 8.52054C20.2922 9.28761 20.7204 10.3047 20.7204 11.3953Z" fill="#43464E"/>
<rect x="1.35" y="5.85" width="8.05815" height="1.28079" rx="0.640393" stroke-width="0.3"/>
<rect x="1.35" y="11.7345" width="7.08839" height="1.28079" rx="0.640393" stroke-width="0.3"/>
<rect x="1.35" y="17.6192" width="10.9675" height="1.28079" rx="0.640393" stroke-width="0.3"/>

</symbol>
<symbol id="search" viewBox="0 0 32 32">
<path d="M25.6679 24.1085L22.0788 20.5457C24.8811 16.9579 24.5864 11.8481 21.3652 8.62884C19.6692 6.93384 17.4063 6 14.9979 6C12.5882 6 10.3265 6.93389 8.63049 8.62884C6.93443 10.3238 6 12.5853 6 14.9922C6 17.4004 6.93448 19.6607 8.63049 21.3556C10.3266 23.0506 12.5894 23.9844 14.9979 23.9844C16.9897 23.9844 18.9568 23.3212 20.5298 22.0677L24.0948 25.6804C24.3157 25.9011 24.5865 26 24.8814 26C25.1762 26 25.4471 25.8771 25.6679 25.6804C26.1107 25.2629 26.1107 24.5507 25.6679 24.1082L25.6679 24.1085ZM21.784 14.9922C21.784 16.8101 21.0714 18.5061 19.7921 19.7836C18.5138 21.061 16.7928 21.7742 14.9978 21.7742C13.2027 21.7742 11.4817 21.062 10.2035 19.7836C8.92516 18.5061 8.21157 16.7861 8.21157 14.9922C8.21157 13.1744 8.92418 11.4783 10.2035 10.2009C11.4817 8.9234 13.2027 8.21025 14.9978 8.21025C16.8168 8.21025 18.5139 8.92242 19.7921 10.2009C21.0704 11.4793 21.784 13.1745 21.784 14.9922Z" fill="#43464E"/>

</symbol>
<symbol id="wishlist" viewBox="0 0 24 24">
<path fill-rule="evenodd" clip-rule="evenodd" d="M12.2581 7.24282C13.1524 6.44708 14.3654 6 15.6304 6C16.8953 6 18.1084 6.44708 19.0026 7.24282C19.897 8.03797 20.3996 9.11695 20.3996 10.242C20.3996 11.3671 19.897 12.4461 19.0025 13.2414L12.5181 19.0089C12.2316 19.2637 11.7672 19.2637 11.4807 19.0089L4.99638 13.2414C3.13402 11.5849 3.13402 8.89919 4.99638 7.24271C6.85873 5.58623 9.8782 5.58623 11.7406 7.24271L11.9994 7.47295L12.2581 7.24282ZM11.9994 17.6249L17.1876 13.0103L17.9652 12.3186C18.5846 11.7679 18.9326 11.0209 18.9326 10.242C18.9326 9.46313 18.5846 8.71615 17.9652 8.1655C17.3459 7.61439 16.5061 7.30488 15.6304 7.30488C14.7547 7.30488 13.9149 7.61439 13.2957 8.1654L12.5181 8.85698C12.2317 9.11177 11.7672 9.11177 11.4808 8.85698L10.7032 8.1654C9.41378 7.0185 7.32319 7.0185 6.03376 8.1654C4.74432 9.31229 4.74432 11.1718 6.03376 12.3187L11.9994 17.6249Z"/>
<mask id="mask0_20482_6295" style="mask-type:alpha" maskUnits="userSpaceOnUse" x="3" y="6" width="18" height="14">
<path fill-rule="evenodd" clip-rule="evenodd" d="M12.2581 7.24282C13.1524 6.44708 14.3654 6 15.6304 6C16.8953 6 18.1084 6.44708 19.0026 7.24282C19.897 8.03797 20.3996 9.11695 20.3996 10.242C20.3996 11.3671 19.897 12.4461 19.0025 13.2414L12.5181 19.0089C12.2316 19.2637 11.7672 19.2637 11.4807 19.0089L4.99638 13.2414C3.13402 11.5849 3.13402 8.89919 4.99638 7.24271C6.85873 5.58623 9.8782 5.58623 11.7406 7.24271L11.9994 7.47295L12.2581 7.24282ZM11.9994 17.6249L17.1876 13.0103L17.9652 12.3186C18.5846 11.7679 18.9326 11.0209 18.9326 10.242C18.9326 9.46313 18.5846 8.71615 17.9652 8.1655C17.3459 7.61439 16.5061 7.30488 15.6304 7.30488C14.7547 7.30488 13.9149 7.61439 13.2957 8.1654L12.5181 8.85698C12.2317 9.11177 11.7672 9.11177 11.4808 8.85698L10.7032 8.1654C9.41378 7.0185 7.32319 7.0185 6.03376 8.1654C4.74432 9.31229 4.74432 11.1718 6.03376 12.3187L11.9994 17.6249Z" fill="white"/>
</mask>
<g mask="url(#mask0_20482_6295)">
</g>

</symbol></svg>